#!OML:ASF I:\Actors\actors\Patient Classification 1\Patient 1\Session 1\Subject1.ASF
:FULLY-SPECIFIED
:DEGREES
485
root 0.561204 17.5067 9.02285 8.62816 -2.99003 -9.40798
lowerback 0.0526774 1.60842 6.24412
upperback -6.10711 2.47863 1.91623
thorax -6.23053 0.955483 -1.61915
lowerneck -3.58978 -4.79251 -2.64083
upperneck 15.5375 -7.71907 9.21824
head 5.73131 -3.32775 2.84914
rclavicle -2.39287e-014 3.97569e-015
rhumerus 24.9737 16.2716 -37.3607
rradius 133.465
rwrist -1.4861
rhand 16.4965 -29.099
rfingers 7.12502
rthumb 41.2583 -53.9328
lclavicle -2.39287e-014 3.97569e-015
lhumerus -40.6691 -29.9599 102.508
lradius 131.637
lwrist 22.8283
lhand -22.4378 -4.9581
lfingers 7.12502
lthumb 3.98598 24.9844
rfemur -4.50239 22.7444 26.1068
rtibia 3.65377
rfoot -12.1624 -23.8225
rtoes 2.42982
lfemur 6.71359 -46.0326 -12.567
ltibia -4.64899
lfoot -30.2479 55.0178
ltoes 17.7081
486
root 0.561659 17.5035 9.03092 8.69442 -2.98997 -9.39047
lowerback -0.183053 1.63179 6.2757
upperback -6.1718 2.49399 1.91362
thorax -6.16194 0.96241 -1.63324
lowerneck -3.84325 -4.83733 -2.68835
upperneck 15.7596 -7.7898 9.16924
head 5.84926 -3.35405 2.82977
rclavicle 3.07122e-014 2.22639e-014
rhumerus 24.9231 16.1766 -37.3748
rradius 133.431
rwrist -1.28193
rhand 16.507 -29.0044
rfingers 7.12502
rthumb 41.2683 -53.8349
lclavicle 3.07122e-014 2.22639e-014
lhumerus -40.7774 -29.9243 102.591
lradius 131.599
lwrist 22.8481
lhand -22.4414 -5.09899
lfingers 7.12502
lthumb 3.98249 24.8435
rfemur -4.3758 22.899 26.0867
rtibia 3.34673
rfoot -12.0318 -24.0065
rtoes 2.08855
lfemur 6.76993 -46.2421 -12.6334
ltibia -4.70399
lfoot -30.5011 55.1782
ltoes 17.8589
487
root 0.561799 17.5011 9.03813 8.70015 -2.99485 -9.37698
lowerback -0.353849 1.67041 6.32596
upperback -6.2226 2.53464 1.90177
thorax -6.11311 0.980241 -1.67023
lowerneck -4.04181 -4.91996 -2.65497
upperneck 16.0181 -7.90465 9.00772
head 5.96487 -3.40525 2.75942
rclavicle -4.12478e-015 2.38542e-015
rhumerus 24.8544 16.0438 -37.4266
rradius 133.375
rwrist -1.21186
rhand 16.6277 -28.8521
rfingers 7.12502
rthumb 41.3815 -53.646
lclavicle -4.12478e-015 2.38542e-015
lhumerus -40.8941 -29.9483 102.716
lradius 131.553
lwrist 22.8681
lhand -22.4663 -5.16607
lfingers 7.12502
lthumb 3.95853 24.7769
rfemur -4.20558 23.0279 26.1018
rtibia 3.09618
rfoot -11.9812 -24.1863
rtoes 1.7975
lfemur 6.98788 -46.5648 -12.8251
ltibia -4.77263
lfoot -30.9782 55.4017
ltoes 18.1742
488
root 0.561284 17.4993 9.04481 8.68225 -2.98156 -9.34906
lowerback -0.514611 1.67642 6.33581
upperback -6.2642 2.53134 1.9047
thorax -6.0653 0.978969 -1.66769
lowerneck -3.96534 -4.90392 -2.87885
upperneck 15.9632 -7.91108 9.3392
head 5.95594 -3.40295 2.90291
rclavicle 3.00662e-015 -9.14409e-015
rhumerus 24.8568 15.9557 -37.4611
rradius 133.32
rwrist -1.36621
rhand 16.6424 -28.8577
rfingers 7.12502
rthumb 41.3953 -53.6471
lclavicle 3.00662e-015 -9.14409e-015
lhumerus -40.9748 -29.9264 102.819
lradius 131.482
lwrist 22.8372
lhand -22.5479 -5.07246
lfingers 7.12502
lthumb 3.87965 24.872
rfemur -3.99903 23.2954 26.1286
rtibia 2.86812
rfoot -12.0466 -24.486
rtoes 2.01262
lfemur 7.212 -46.857 -13.0363
ltibia -4.82991
lfoot -31.3899 55.5887
ltoes 18.472
489
root 0.560728 17.4979 9.05168 8.65424 -2.95967 -9.32812
lowerback -0.651754 1.66053 6.34069
upperback -6.30704 2.50132 1.92037
thorax -6.03516 0.964496 -1.64891
lowerneck -3.8919 -4.86941 -3.09451
upperneck 15.9106 -7.88392 9.61394
head 5.94331 -3.38774 3.02962
rclavicle 1.40143e-014 1.19271e-015
rhumerus 24.9132 15.9394 -37.4567
rradius 133.291
rwrist -1.59884
rhand 16.5646 -29.0696
rfingers 7.12502
rthumb 41.3223 -53.8827
lclavicle 1.40143e-014 1.19271e-015
lhumerus -41.0095 -29.8349 102.884
lradius 131.412
lwrist 22.7701
lhand -22.6115 -4.92004
lfingers 7.12502
lthumb 3.81825 25.0255
rfemur -3.78676 23.5314 26.1677
rtibia 2.65648
rfoot -12.1031 -24.7287
rtoes 2.18586
lfemur 7.40187 -47.0536 -13.2106
ltibia -4.87265
lfoot -31.6187 55.7202
ltoes 18.6763
490
root 0.559571 17.4968 9.05743 8.62896 -2.96068 -9.37033
lowerback -0.745497 1.65718 6.39829
upperback -6.35201 2.49401 1.94855
thorax -6.02977 0.958069 -1.64863
lowerneck -3.96503 -4.89579 -2.99592
upperneck 16.0514 -7.91514 9.44234
head 5.99213 -3.40238 2.9547
rclavicle 1.44864e-014 -7.95139e-016
rhumerus 24.948 15.9339 -37.4778
rradius 133.263
rwrist -1.72813
rhand 16.5936 -29.2098
rfingers 7.12502
rthumb 41.3495 -54.0141
lclavicle 1.44864e-014 -7.95139e-016
lhumerus -41.02 -29.7229 102.923
lradius 131.408
lwrist 22.7869
lhand -22.6057 -4.79245
lfingers 7.12502
lthumb 3.82391 25.153
rfemur -3.63044 23.6478 26.2599
rtibia 2.49447
rfoot -12.094 -24.8296
rtoes 2.24595
lfemur 7.52067 -47.0823 -13.2413
ltibia -4.90809
lfoot -31.6879 55.7519
ltoes 18.7092
